<svg xmlns="http://www.w3.org/2000/svg" width="163.281" height="34.938" viewBox="0 0 163.281 34.938">
  <metadata><?xpacket begin="﻿" id="W5M0MpCehiHzreSzNTczkc9d"?>
<x:xmpmeta xmlns:x="adobe:ns:meta/" x:xmptk="Adobe XMP Core 5.6-c138 79.159824, 2016/09/14-01:09:01        ">
   <rdf:RDF xmlns:rdf="http://www.w3.org/1999/02/22-rdf-syntax-ns#">
      <rdf:Description rdf:about=""/>
   </rdf:RDF>
</x:xmpmeta>
                                                                                                    
                                                                                                    
                                                                                                    
                                                                                                    
                                                                                                    
                                                                                                    
                                                                                                    
                                                                                                    
                                                                                                    
                                                                                                    
                                                                                                    
                                                                                                    
                                                                                                    
                                                                                                    
                                                                                                    
                                                                                                    
                                                                                                    
                                                                                                    
                                                                                                    
                                                                                                    
                           
<?xpacket end="w"?></metadata>
<defs>
    <style>
      .cls-1 {
        fill-rule: evenodd;
      }
    </style>
  </defs>
  <path id="logo" class="cls-1" d="M0.58,0.911v33.6H14.112a15.72,15.72,0,0,0,11.72-4.824,16.462,16.462,0,0,0,4.712-11.976A16.463,16.463,0,0,0,25.832,5.735,15.72,15.72,0,0,0,14.112.911H0.58ZM8.313,27.119V8.3h5.8a8.648,8.648,0,0,1,6.5,2.568,9.412,9.412,0,0,1,2.489,6.84,9.41,9.41,0,0,1-2.489,6.84,8.646,8.646,0,0,1-6.5,2.568h-5.8Zm34.8-5.952H55.191v-7.3H43.109V8.3H56.4V0.911H35.376v33.6H56.641V27.119H43.109V21.167ZM79.452,34.511l11.019-33.6H82.013l-7.491,24.72L67.031,0.911H58.574l11.019,33.6h9.859Zm14.4,0h7.733V0.911H93.853v33.6Zm38.615-1.416a15.514,15.514,0,0,0,6.041-5.688l-6.67-3.84a7.488,7.488,0,0,1-3.165,3.024,9.874,9.874,0,0,1-4.664,1.1,9.594,9.594,0,0,1-7.177-2.736,9.907,9.907,0,0,1-2.682-7.248,9.908,9.908,0,0,1,2.682-7.248,9.594,9.594,0,0,1,7.177-2.736,9.914,9.914,0,0,1,4.64,1.08,7.6,7.6,0,0,1,3.189,3.048l6.67-3.84a15.881,15.881,0,0,0-6.09-5.688A17.419,17.419,0,0,0,124.01.239a17.12,17.12,0,0,0-17.592,17.472A17.12,17.12,0,0,0,124.01,35.183,17.519,17.519,0,0,0,132.468,33.095Zm17.881-11.928h12.082v-7.3H150.349V8.3h13.29V0.911H142.617v33.6h21.264V27.119H150.349V21.167Z" transform="translate(-0.594 -0.25)"/>
</svg>
